<svg xmlns="http://www.w3.org/2000/svg" xmlns:xlink="http://www.w3.org/1999/xlink" contentStyleType="text/css" height="760px" preserveAspectRatio="none" style="width:763px;height:760px;background:#FFFFFF;" version="1.1" viewBox="0 0 763 760" width="763px" zoomAndPan="magnify"><defs/><g><!--cluster 2567a5ec9705eb7ac2c984033e06189d--><g id="cluster_2567a5ec9705eb7ac2c984033e06189d"><polygon fill="none" points="16,132.6,26,122.6,428,122.6,428,634.08,418,644.08,16,644.08,16,132.6" style="stroke:#181818;stroke-width:1.0;"/><line style="stroke:#181818;stroke-width:1.0;" x1="418" x2="428" y1="132.6" y2="122.6"/><line style="stroke:#181818;stroke-width:1.0;" x1="16" x2="418" y1="132.6" y2="132.6"/><line style="stroke:#181818;stroke-width:1.0;" x1="418" x2="418" y1="132.6" y2="644.08"/><text fill="#000000" font-family="sans-serif" font-size="14" font-weight="bold" lengthAdjust="spacing" textLength="35" x="200.5" y="148.5951">Web</text></g><!--cluster e1bfd762321e409cee4ac0b6e841963c--><g id="cluster_e1bfd762321e409cee4ac0b6e841963c"><polygon fill="none" points="530,132.6,540,122.6,746,122.6,746,634.08,736,644.08,530,644.08,530,132.6" style="stroke:#181818;stroke-width:1.0;"/><line style="stroke:#181818;stroke-width:1.0;" x1="736" x2="746" y1="132.6" y2="122.6"/><line style="stroke:#181818;stroke-width:1.0;" x1="530" x2="736" y1="132.6" y2="132.6"/><line style="stroke:#181818;stroke-width:1.0;" x1="736" x2="736" y1="132.6" y2="644.08"/><text fill="#000000" font-family="sans-serif" font-size="14" font-weight="bold" lengthAdjust="spacing" textLength="30" x="619" y="148.5951">Php</text></g><!--entity 04a565d19766ebe0348853b17c395bd1--><g id="elem_04a565d19766ebe0348853b17c395bd1"><rect fill="#F1F1F1" height="95.1875" rx="2.5" ry="2.5" style="stroke:#181818;stroke-width:0.5;" width="128" x="242" y="170.6"/><rect fill="#F1F1F1" height="10" style="stroke:#181818;stroke-width:0.5;" width="15" x="350" y="175.6"/><rect fill="#F1F1F1" height="2" style="stroke:#181818;stroke-width:0.5;" width="4" x="348" y="177.6"/><rect fill="#F1F1F1" height="2" style="stroke:#181818;stroke-width:0.5;" width="4" x="348" y="181.6"/><text fill="#000000" font-family="sans-serif" font-size="14" font-weight="bold" lengthAdjust="spacing" textLength="34" x="257" y="203.5951">web</text><text fill="#000000" font-family="sans-serif" font-size="14" lengthAdjust="spacing" textLength="4" x="257" y="219.892">&#160;</text><text fill="#000000" font-family="sans-serif" font-size="14" lengthAdjust="spacing" textLength="88" x="257" y="236.1889">image: nginx</text><text fill="#000000" font-family="sans-serif" font-size="14" lengthAdjust="spacing" textLength="4" x="257" y="252.4857">&#160;</text></g><!--entity f5f243ad317f785375e2f747f020d550--><g id="elem_f5f243ad317f785375e2f747f020d550"><ellipse cx="369" cy="355.79" fill="#F1F1F1" rx="8" ry="8" style="stroke:#181818;stroke-width:0.5;"/><text fill="#000000" font-family="sans-serif" font-size="14" lengthAdjust="spacing" textLength="18" x="360" y="385.7851">80</text></g><!--entity 97894f1633fc20a7c06c1d4da73aa2c8--><g id="elem_97894f1633fc20a7c06c1d4da73aa2c8"><rect fill="#F1F1F1" height="39.2969" rx="2.5" ry="2.5" style="stroke:#181818;stroke-width:0.5;" width="89" x="307.5" y="580.79"/><polygon fill="#F1F1F1" points="379.5,585.79,379.5,599.79,391.5,599.79,391.5,591.79,385.5,585.79,379.5,585.79" style="stroke:#181818;stroke-width:0.5;"/><line style="stroke:#181818;stroke-width:0.5;" x1="385.5" x2="385.5" y1="585.79" y2="591.79"/><line style="stroke:#181818;stroke-width:0.5;" x1="391.5" x2="385.5" y1="591.79" y2="591.79"/><text fill="#000000" font-family="sans-serif" font-size="14" lengthAdjust="spacing" textLength="59" x="317.5" y="606.7851">/opt/app</text></g><!--entity a4ab24ed944d66dca6b231397a5ba153--><g id="elem_a4ab24ed944d66dca6b231397a5ba153"><rect fill="#F1F1F1" height="39.2969" rx="2.5" ry="2.5" style="stroke:#181818;stroke-width:0.5;" width="233" x="39.5" y="580.79"/><polygon fill="#F1F1F1" points="255.5,585.79,255.5,599.79,267.5,599.79,267.5,591.79,261.5,585.79,255.5,585.79" style="stroke:#181818;stroke-width:0.5;"/><line style="stroke:#181818;stroke-width:0.5;" x1="261.5" x2="261.5" y1="585.79" y2="591.79"/><line style="stroke:#181818;stroke-width:0.5;" x1="267.5" x2="261.5" y1="591.79" y2="591.79"/><text fill="#000000" font-family="sans-serif" font-size="14" lengthAdjust="spacing" textLength="203" x="49.5" y="606.7851">/etc/nginx/conf.d/default.conf</text></g><!--entity f6067177eee195300ec678df7ff34766--><g id="elem_f6067177eee195300ec678df7ff34766"><rect fill="#F1F1F1" height="95.1875" rx="2.5" ry="2.5" style="stroke:#181818;stroke-width:0.5;" width="149" x="553.5" y="170.6"/><rect fill="#F1F1F1" height="10" style="stroke:#181818;stroke-width:0.5;" width="15" x="682.5" y="175.6"/><rect fill="#F1F1F1" height="2" style="stroke:#181818;stroke-width:0.5;" width="4" x="680.5" y="177.6"/><rect fill="#F1F1F1" height="2" style="stroke:#181818;stroke-width:0.5;" width="4" x="680.5" y="181.6"/><text fill="#000000" font-family="sans-serif" font-size="14" font-weight="bold" lengthAdjust="spacing" textLength="30" x="568.5" y="203.5951">php</text><text fill="#000000" font-family="sans-serif" font-size="14" lengthAdjust="spacing" textLength="4" x="568.5" y="219.892">&#160;</text><text fill="#000000" font-family="sans-serif" font-size="14" lengthAdjust="spacing" textLength="109" x="568.5" y="236.1889">image: php:fpm</text><text fill="#000000" font-family="sans-serif" font-size="14" lengthAdjust="spacing" textLength="4" x="568.5" y="252.4857">&#160;</text></g><!--entity a0d3de71c16f9bada757b93402de2b45--><g id="elem_a0d3de71c16f9bada757b93402de2b45"><rect fill="#F1F1F1" height="39.2969" rx="2.5" ry="2.5" style="stroke:#181818;stroke-width:0.5;" width="89" x="568.5" y="580.79"/><polygon fill="#F1F1F1" points="640.5,585.79,640.5,599.79,652.5,599.79,652.5,591.79,646.5,585.79,640.5,585.79" style="stroke:#181818;stroke-width:0.5;"/><line style="stroke:#181818;stroke-width:0.5;" x1="646.5" x2="646.5" y1="585.79" y2="591.79"/><line style="stroke:#181818;stroke-width:0.5;" x1="652.5" x2="646.5" y1="591.79" y2="591.79"/><text fill="#000000" font-family="sans-serif" font-size="14" lengthAdjust="spacing" textLength="59" x="578.5" y="606.7851">/opt/app</text></g><!--entity 64547ea0626fdcaff5718d31cdf0b41b--><g id="elem_64547ea0626fdcaff5718d31cdf0b41b"><polygon fill="#F1F1F1" points="522,16,532,6,636,6,636,58.5938,626,68.5938,522,68.5938,522,16" style="stroke:#181818;stroke-width:0.5;"/><line style="stroke:#181818;stroke-width:0.5;" x1="626" x2="636" y1="16" y2="6"/><line style="stroke:#181818;stroke-width:0.5;" x1="522" x2="626" y1="16" y2="16"/><line style="stroke:#181818;stroke-width:0.5;" x1="626" x2="626" y1="16" y2="68.5938"/><text fill="#000000" font-family="sans-serif" font-size="14" font-weight="bold" lengthAdjust="spacing" textLength="65" x="537" y="38.9951">php-app</text><text fill="#000000" font-family="sans-serif" font-size="14" lengthAdjust="spacing" textLength="74" x="537" y="55.292">&#171;network&#187;</text></g><!--entity 600c44c1349e9154dce569ba37e2d70b--><g id="elem_600c44c1349e9154dce569ba37e2d70b"><ellipse cx="479" cy="490.79" fill="#F1F1F1" rx="8" ry="8" style="stroke:#181818;stroke-width:0.5;"/><text fill="#000000" font-family="sans-serif" font-size="14" lengthAdjust="spacing" textLength="36" x="461" y="520.7851">8080</text></g><!--entity 71f19845f6acaf821b3cb738fa6a15d2--><g id="elem_71f19845f6acaf821b3cb738fa6a15d2"><rect fill="#F1F1F1" height="39.2969" rx="2.5" ry="2.5" style="stroke:#181818;stroke-width:0.5;" width="65" x="449.5" y="715.08"/><polygon fill="#F1F1F1" points="497.5,720.08,497.5,734.08,509.5,734.08,509.5,726.08,503.5,720.08,497.5,720.08" style="stroke:#181818;stroke-width:0.5;"/><line style="stroke:#181818;stroke-width:0.5;" x1="503.5" x2="503.5" y1="720.08" y2="726.08"/><line style="stroke:#181818;stroke-width:0.5;" x1="509.5" x2="503.5" y1="726.08" y2="726.08"/><text fill="#000000" font-family="sans-serif" font-size="14" lengthAdjust="spacing" textLength="35" x="459.5" y="741.0751">./app</text></g><!--entity 7e0d939614ce5ab8f13a43aa64370540--><g id="elem_7e0d939614ce5ab8f13a43aa64370540"><rect fill="#F1F1F1" height="39.2969" rx="2.5" ry="2.5" style="stroke:#181818;stroke-width:0.5;" width="98" x="107" y="715.08"/><polygon fill="#F1F1F1" points="188,720.08,188,734.08,200,734.08,200,726.08,194,720.08,188,720.08" style="stroke:#181818;stroke-width:0.5;"/><line style="stroke:#181818;stroke-width:0.5;" x1="194" x2="194" y1="720.08" y2="726.08"/><line style="stroke:#181818;stroke-width:0.5;" x1="200" x2="194" y1="726.08" y2="726.08"/><text fill="#000000" font-family="sans-serif" font-size="14" lengthAdjust="spacing" textLength="68" x="117" y="741.0751">./site.conf</text></g><!--link 04a565d19766ebe0348853b17c395bd1 to f5f243ad317f785375e2f747f020d550--><g id="link_04a565d19766ebe0348853b17c395bd1_f5f243ad317f785375e2f747f020d550"><path codeLine="26" d="M327.86,266.24 C341.65,295.91 358.16,331.46 365.36,346.94 " fill="none" id="04a565d19766ebe0348853b17c395bd1-f5f243ad317f785375e2f747f020d550" style="stroke:#181818;stroke-width:1.0;"/></g><!--link f5f243ad317f785375e2f747f020d550 to 600c44c1349e9154dce569ba37e2d70b--><g id="link_f5f243ad317f785375e2f747f020d550_600c44c1349e9154dce569ba37e2d70b"><path codeLine="27" d="M375.55,364.71 C395.16,388.42 453.24,458.64 472.62,482.07 " fill="none" id="f5f243ad317f785375e2f747f020d550-600c44c1349e9154dce569ba37e2d70b" style="stroke:#181818;stroke-width:1.0;"/></g><!--link 97894f1633fc20a7c06c1d4da73aa2c8 to 71f19845f6acaf821b3cb738fa6a15d2--><g id="link_97894f1633fc20a7c06c1d4da73aa2c8_71f19845f6acaf821b3cb738fa6a15d2"><path codeLine="28" d="M370.63,620.39 C395.34,645.54 438.71,689.68 463.41,714.81 " fill="none" id="97894f1633fc20a7c06c1d4da73aa2c8-71f19845f6acaf821b3cb738fa6a15d2" style="stroke:#181818;stroke-width:1.0;"/><text fill="#000000" font-family="sans-serif" font-size="13" lengthAdjust="spacing" textLength="14" x="433" y="681.1469">rw</text></g><!--link 04a565d19766ebe0348853b17c395bd1 to 97894f1633fc20a7c06c1d4da73aa2c8--><g id="link_04a565d19766ebe0348853b17c395bd1_97894f1633fc20a7c06c1d4da73aa2c8"><path codeLine="29" d="M311.23,265.96 C314.97,299.14 320.18,344.71 325,384.79 C333.7,457.13 343.9513,537.1494 348.7813,574.5394 " fill="none" id="04a565d19766ebe0348853b17c395bd1-to-97894f1633fc20a7c06c1d4da73aa2c8" style="stroke:#181818;stroke-width:1.0;stroke-dasharray:7.0,7.0;"/><polygon fill="#181818" points="349.55,580.49,352.364,571.0517,348.9094,575.5312,344.4299,572.0766,349.55,580.49" style="stroke:#181818;stroke-width:1.0;"/><text fill="#000000" font-family="sans-serif" font-size="13" lengthAdjust="spacing" textLength="23" x="331" y="427.8569">use</text></g><!--link a4ab24ed944d66dca6b231397a5ba153 to 7e0d939614ce5ab8f13a43aa64370540--><g id="link_a4ab24ed944d66dca6b231397a5ba153_7e0d939614ce5ab8f13a43aa64370540"><path codeLine="30" d="M156,620.39 C156,645.54 156,689.68 156,714.81 " fill="none" id="a4ab24ed944d66dca6b231397a5ba153-7e0d939614ce5ab8f13a43aa64370540" style="stroke:#181818;stroke-width:1.0;"/><text fill="#000000" font-family="sans-serif" font-size="13" lengthAdjust="spacing" textLength="14" x="157" y="681.1469">rw</text></g><!--link 04a565d19766ebe0348853b17c395bd1 to a4ab24ed944d66dca6b231397a5ba153--><g id="link_04a565d19766ebe0348853b17c395bd1_a4ab24ed944d66dca6b231397a5ba153"><path codeLine="31" d="M287.46,266.2 C254.3,350.25 188.4014,517.2884 165.7314,574.7684 " fill="none" id="04a565d19766ebe0348853b17c395bd1-to-a4ab24ed944d66dca6b231397a5ba153" style="stroke:#181818;stroke-width:1.0;stroke-dasharray:7.0,7.0;"/><polygon fill="#181818" points="163.53,580.35,170.5531,573.4452,165.3645,575.6987,163.111,570.5101,163.53,580.35" style="stroke:#181818;stroke-width:1.0;"/><text fill="#000000" font-family="sans-serif" font-size="13" lengthAdjust="spacing" textLength="23" x="229" y="427.8569">use</text></g><!--reverse link 64547ea0626fdcaff5718d31cdf0b41b to 2567a5ec9705eb7ac2c984033e06189d--><g id="link_64547ea0626fdcaff5718d31cdf0b41b_2567a5ec9705eb7ac2c984033e06189d"><path codeLine="32" d="M547.6841,73.5347 C525.3091,98.7097 497.0475,130.505 470.0662,160.86 C456.5756,176.0375 444.4016,189.7338 435.4364,199.82 C433.1951,202.3416 431.1544,204.6375 429.3438,206.6746 C428.8911,207.1838 428.4529,207.6769 428.0294,208.1533 " fill="none" id="64547ea0626fdcaff5718d31cdf0b41b-backto-2567a5ec9705eb7ac2c984033e06189d" style="stroke:#181818;stroke-width:1.0;"/><polygon fill="#181818" points="551.67,69.05,542.7013,73.1198,548.3484,72.7873,548.6809,78.4343,551.67,69.05" style="stroke:#181818;stroke-width:1.0;"/></g><!--link a0d3de71c16f9bada757b93402de2b45 to 71f19845f6acaf821b3cb738fa6a15d2--><g id="link_a0d3de71c16f9bada757b93402de2b45_71f19845f6acaf821b3cb738fa6a15d2"><path codeLine="33" d="M594.23,620.39 C569.33,645.54 525.62,689.68 500.73,714.81 " fill="none" id="a0d3de71c16f9bada757b93402de2b45-71f19845f6acaf821b3cb738fa6a15d2" style="stroke:#181818;stroke-width:1.0;"/><text fill="#000000" font-family="sans-serif" font-size="13" lengthAdjust="spacing" textLength="14" x="544" y="681.1469">rw</text></g><!--link f6067177eee195300ec678df7ff34766 to a0d3de71c16f9bada757b93402de2b45--><g id="link_f6067177eee195300ec678df7ff34766_a0d3de71c16f9bada757b93402de2b45"><path codeLine="34" d="M626.15,266.2 C622.83,350.25 616.2568,516.8747 613.9868,574.3547 " fill="none" id="f6067177eee195300ec678df7ff34766-to-a0d3de71c16f9bada757b93402de2b45" style="stroke:#181818;stroke-width:1.0;stroke-dasharray:7.0,7.0;"/><polygon fill="#181818" points="613.75,580.35,618.102,571.5149,613.9473,575.3539,610.1083,571.1992,613.75,580.35" style="stroke:#181818;stroke-width:1.0;"/><text fill="#000000" font-family="sans-serif" font-size="13" lengthAdjust="spacing" textLength="23" x="621" y="427.8569">use</text></g><!--reverse link 64547ea0626fdcaff5718d31cdf0b41b to e1bfd762321e409cee4ac0b6e841963c--><g id="link_64547ea0626fdcaff5718d31cdf0b41b_e1bfd762321e409cee4ac0b6e841963c"><path codeLine="35" d="M642.087,55.0976 C670.857,65.4276 698.08,80.2 718,106.6 C721.7025,111.5063 724.7967,116.8795 727.3763,122.5306 " fill="none" id="64547ea0626fdcaff5718d31cdf0b41b-backto-e1bfd762321e409cee4ac0b6e841963c" style="stroke:#181818;stroke-width:1.0;"/><polygon fill="#181818" points="636.44,53.07,643.5588,59.8761,641.1459,54.7597,646.2623,52.3467,636.44,53.07" style="stroke:#181818;stroke-width:1.0;"/></g><!--SRC=[bPHDRjmm38NtFeNXLMjWFFgXI2i8vWpTTT5sGKbKCcZ6DX874w3etQiuIPii2YLB0I8VtySdyStDV3uT7uxJLJFDITgkxvVhPSVBqlVVfylBITRpVFlpSEXQlciH792mGeCvHSxPaHwJrJ5b5K27vnvV9MpNZKDY9z6JSXA8eub-16MjADIZJ-slfetpQPadcTPM0JjqINj2b23AmZWw6pH5wrr8kltMzFrPGjytpV74LtBHJbV7wQ5fVZIVFhVTg3RHxB81osKgobGQa1EJ2IWhev9pgk7RzPWvhcstdvTrNwnkTPv63rcZjJaQnHGLHfqWCLbc4yVNTRB6_QQzZ_EKXxHFald-PXqUZrit1Wu697c0X5XOOJ1MMrzu1DREDh-VMNsvVf8N7N8YDDPe0UMZ271K0MK4xT76jwmoAYHD92BQEwkKHAGnPShPGk6tiIgBVCMgd2xoSdgazHy2h99DGZfgp3vmSUueU0lA9341N9dvYVCpQLGg0aHjmOlN3b8KXwNGafX4AhpI6VwAaCwwXC1bv1AWqUXWOo0xPiR29PatHNV7LVun9L79MuyQYX27CMlBPTECO4l0G3NL1EtIhfwFseMjIzLxBKvRbngCzgBjRizTtTWmf64uL3FysE_-Jhgc5i-dwIgyFpfTLVHbkkg_iRlV7UgVKItF7rf1zSMzcAo9lfYiFlXtcVm3]--></g></svg>